<svg id="Camada_1" data-name="Camada 1" xmlns="http://www.w3.org/2000/svg" viewBox="0 0 1233 288"><defs><style>.cls-1{fill:#2a4d9b;}</style></defs><path class="cls-1" d="M193,105.14V72.22H154.92V234h36.59v41.62H54.1V234H91.34V72.22H54.1v32.92H12.47V31H234.28v74.14Z"/><path class="cls-1" d="M362.09,199.49V144.75H335.91v-40H416.4V234l30.16-.13v41.65l-84.47.13v-17.3q-25.53,16.9-49.6,16.91-24.87,0-38.7-13.83T260,223.38V144.75H234.28v-40H314v94.74C314,233.78,362.09,233.92,362.09,199.49Z"/><path class="cls-1" d="M1090.8,180.91v54.74H1117v40h-80.49V146.4l-30.16.13V104.88l84.47-.13v17.31q25.53-16.92,49.6-16.91,24.88,0,38.7,13.82T1192.92,157v78.63h25.7v40h-79.68V180.91C1138.94,146.62,1090.8,146.48,1090.8,180.91Z"/><polygon class="cls-1" points="582.84 145.65 582.84 104.97 574.67 104.97 546.15 104.97 546.15 71.91 482.67 71.91 482.67 104.97 446.03 104.97 446.03 145.64 482.67 145.64 482.62 275.56 582.84 275.56 582.84 233.93 546.25 233.93 546.25 145.64 582.84 145.65"/><polygon class="cls-1" points="749.65 145.65 749.65 104.97 741.47 104.97 712.96 104.97 712.96 71.91 649.48 71.91 649.48 104.97 612.84 104.97 612.84 145.64 649.48 145.64 649.43 275.56 749.65 275.56 749.65 233.93 713.06 233.93 713.06 145.64 749.65 145.65"/><polygon class="cls-1" points="869.52 234.82 869.52 275.49 1006.33 275.49 1006.33 234.83 969.7 234.83 969.74 104.91 869.52 104.91 869.52 146.54 906.11 146.54 906.11 234.83 869.52 234.82"/><path class="cls-1" d="M839.65,245.57q0,13-8.86,21.55a29.32,29.32,0,0,1-21.06,8.53,29.9,29.9,0,1,1,29.92-30.08Z"/><path class="cls-1" d="M967.93,60.92q0,13-8.86,21.55A29.33,29.33,0,0,1,938,91a29,29,0,0,1-21.22-8.87,28.93,28.93,0,0,1-8.86-21.22,28.76,28.76,0,0,1,8.86-21.06,29.65,29.65,0,0,1,42.28,0A28.76,28.76,0,0,1,967.93,60.92Z"/></svg>